<mxfile host="app.diagrams.net" modified="2024-04-03T06:41:10.024Z" agent="Mozilla/5.0 (Windows NT 10.0; Win64; x64) AppleWebKit/537.36 (KHTML, like Gecko) Chrome/123.0.0.0 Safari/537.36" etag="4847xMqwVF5ma2m98Nzh" version="24.2.1" type="device">
  <diagram name="페이지-1" id="hC-acC57TQcahpKOU4Xh">
    <mxGraphModel dx="3163" dy="777" grid="1" gridSize="10" guides="1" tooltips="1" connect="1" arrows="1" fold="1" page="1" pageScale="1" pageWidth="827" pageHeight="1169" math="0" shadow="0">
      <root>
        <mxCell id="0" />
        <mxCell id="1" parent="0" />
        <mxCell id="Ikt8q4Z6_RrET4Gfh8_O-19" style="rounded=0;orthogonalLoop=1;jettySize=auto;html=1;" parent="1" source="Ikt8q4Z6_RrET4Gfh8_O-1" target="Ikt8q4Z6_RrET4Gfh8_O-3" edge="1">
          <mxGeometry relative="1" as="geometry" />
        </mxCell>
        <mxCell id="Ikt8q4Z6_RrET4Gfh8_O-22" style="rounded=0;orthogonalLoop=1;jettySize=auto;html=1;" parent="1" source="Ikt8q4Z6_RrET4Gfh8_O-1" target="Ikt8q4Z6_RrET4Gfh8_O-6" edge="1">
          <mxGeometry relative="1" as="geometry" />
        </mxCell>
        <mxCell id="Ikt8q4Z6_RrET4Gfh8_O-23" style="rounded=0;orthogonalLoop=1;jettySize=auto;html=1;" parent="1" source="Ikt8q4Z6_RrET4Gfh8_O-1" target="Ikt8q4Z6_RrET4Gfh8_O-7" edge="1">
          <mxGeometry relative="1" as="geometry" />
        </mxCell>
        <mxCell id="Ikt8q4Z6_RrET4Gfh8_O-1" value="개인회원" style="whiteSpace=wrap;html=1;align=center;" parent="1" vertex="1">
          <mxGeometry x="-980" y="440" width="100" height="40" as="geometry" />
        </mxCell>
        <mxCell id="Ikt8q4Z6_RrET4Gfh8_O-3" value="회원번호" style="ellipse;whiteSpace=wrap;html=1;align=center;fontStyle=4;" parent="1" vertex="1">
          <mxGeometry x="-1180" y="540" width="100" height="40" as="geometry" />
        </mxCell>
        <mxCell id="Ikt8q4Z6_RrET4Gfh8_O-6" value="이름" style="ellipse;whiteSpace=wrap;html=1;align=center;" parent="1" vertex="1">
          <mxGeometry x="-1070" y="540" width="100" height="40" as="geometry" />
        </mxCell>
        <mxCell id="Ikt8q4Z6_RrET4Gfh8_O-7" value="전화번호" style="ellipse;whiteSpace=wrap;html=1;align=center;" parent="1" vertex="1">
          <mxGeometry x="-960" y="540" width="100" height="40" as="geometry" />
        </mxCell>
        <mxCell id="Ikt8q4Z6_RrET4Gfh8_O-27" style="rounded=0;orthogonalLoop=1;jettySize=auto;html=1;entryX=0.5;entryY=0;entryDx=0;entryDy=0;" parent="1" source="Ikt8q4Z6_RrET4Gfh8_O-8" target="Ikt8q4Z6_RrET4Gfh8_O-9" edge="1">
          <mxGeometry relative="1" as="geometry" />
        </mxCell>
        <mxCell id="Ikt8q4Z6_RrET4Gfh8_O-28" style="rounded=0;orthogonalLoop=1;jettySize=auto;html=1;" parent="1" source="Ikt8q4Z6_RrET4Gfh8_O-8" target="Ikt8q4Z6_RrET4Gfh8_O-11" edge="1">
          <mxGeometry relative="1" as="geometry" />
        </mxCell>
        <mxCell id="Ikt8q4Z6_RrET4Gfh8_O-30" style="rounded=0;orthogonalLoop=1;jettySize=auto;html=1;" parent="1" source="Ikt8q4Z6_RrET4Gfh8_O-8" target="Ikt8q4Z6_RrET4Gfh8_O-13" edge="1">
          <mxGeometry relative="1" as="geometry" />
        </mxCell>
        <mxCell id="Ikt8q4Z6_RrET4Gfh8_O-31" style="rounded=0;orthogonalLoop=1;jettySize=auto;html=1;" parent="1" source="Ikt8q4Z6_RrET4Gfh8_O-8" target="Ikt8q4Z6_RrET4Gfh8_O-14" edge="1">
          <mxGeometry relative="1" as="geometry" />
        </mxCell>
        <mxCell id="Ikt8q4Z6_RrET4Gfh8_O-8" value="관리자" style="whiteSpace=wrap;html=1;align=center;" parent="1" vertex="1">
          <mxGeometry x="-620" y="440" width="100" height="40" as="geometry" />
        </mxCell>
        <mxCell id="Ikt8q4Z6_RrET4Gfh8_O-9" value="관리자번호" style="ellipse;whiteSpace=wrap;html=1;align=center;fontStyle=4;" parent="1" vertex="1">
          <mxGeometry x="-760" y="540" width="100" height="40" as="geometry" />
        </mxCell>
        <mxCell id="Ikt8q4Z6_RrET4Gfh8_O-11" value="개설과목" style="ellipse;whiteSpace=wrap;html=1;align=center;" parent="1" vertex="1">
          <mxGeometry x="-645" y="540" width="100" height="40" as="geometry" />
        </mxCell>
        <mxCell id="Ikt8q4Z6_RrET4Gfh8_O-13" value="이름" style="ellipse;whiteSpace=wrap;html=1;align=center;" parent="1" vertex="1">
          <mxGeometry x="-530" y="540" width="100" height="40" as="geometry" />
        </mxCell>
        <mxCell id="Ikt8q4Z6_RrET4Gfh8_O-14" value="전화번호" style="ellipse;whiteSpace=wrap;html=1;align=center;" parent="1" vertex="1">
          <mxGeometry x="-420" y="540" width="100" height="40" as="geometry" />
        </mxCell>
        <mxCell id="Ikt8q4Z6_RrET4Gfh8_O-16" value="게시글" style="whiteSpace=wrap;html=1;align=center;" parent="1" vertex="1">
          <mxGeometry x="-35" y="450" width="100" height="40" as="geometry" />
        </mxCell>
        <mxCell id="Ikt8q4Z6_RrET4Gfh8_O-18" value="수강신청" style="shape=rhombus;perimeter=rhombusPerimeter;whiteSpace=wrap;html=1;align=center;" parent="1" vertex="1">
          <mxGeometry x="-790" y="350" width="120" height="60" as="geometry" />
        </mxCell>
        <mxCell id="Ikt8q4Z6_RrET4Gfh8_O-25" value="" style="fontSize=12;html=1;endArrow=ERzeroToMany;startArrow=ERmandOne;rounded=0;exitX=0.5;exitY=0;exitDx=0;exitDy=0;entryX=0;entryY=0.5;entryDx=0;entryDy=0;" parent="1" source="Ikt8q4Z6_RrET4Gfh8_O-1" target="Ikt8q4Z6_RrET4Gfh8_O-18" edge="1">
          <mxGeometry width="100" height="100" relative="1" as="geometry">
            <mxPoint x="-680" y="260" as="sourcePoint" />
            <mxPoint x="-1010" y="380" as="targetPoint" />
          </mxGeometry>
        </mxCell>
        <mxCell id="Ikt8q4Z6_RrET4Gfh8_O-26" value="" style="fontSize=12;html=1;endArrow=ERzeroToMany;startArrow=ERmandOne;rounded=0;exitX=0.5;exitY=0;exitDx=0;exitDy=0;entryX=1;entryY=0.5;entryDx=0;entryDy=0;" parent="1" source="Ikt8q4Z6_RrET4Gfh8_O-8" target="Ikt8q4Z6_RrET4Gfh8_O-18" edge="1">
          <mxGeometry width="100" height="100" relative="1" as="geometry">
            <mxPoint x="-85" y="180" as="sourcePoint" />
            <mxPoint x="-190" y="250" as="targetPoint" />
          </mxGeometry>
        </mxCell>
        <mxCell id="Ikt8q4Z6_RrET4Gfh8_O-33" value="제목" style="ellipse;whiteSpace=wrap;html=1;align=center;" parent="1" vertex="1">
          <mxGeometry x="-152" y="540" width="100" height="40" as="geometry" />
        </mxCell>
        <mxCell id="Ikt8q4Z6_RrET4Gfh8_O-34" value="게시물번호" style="ellipse;whiteSpace=wrap;html=1;align=center;fontStyle=4;" parent="1" vertex="1">
          <mxGeometry x="-260" y="540" width="100" height="40" as="geometry" />
        </mxCell>
        <mxCell id="Ikt8q4Z6_RrET4Gfh8_O-35" value="내용" style="ellipse;whiteSpace=wrap;html=1;align=center;" parent="1" vertex="1">
          <mxGeometry x="-45" y="540" width="100" height="40" as="geometry" />
        </mxCell>
        <mxCell id="Ikt8q4Z6_RrET4Gfh8_O-37" value="관리자번호" style="ellipse;whiteSpace=wrap;html=1;align=center;" parent="1" vertex="1">
          <mxGeometry x="70" y="540" width="100" height="40" as="geometry" />
        </mxCell>
        <mxCell id="Ikt8q4Z6_RrET4Gfh8_O-38" value="회원번호" style="ellipse;whiteSpace=wrap;html=1;align=center;" parent="1" vertex="1">
          <mxGeometry x="190" y="540" width="100" height="40" as="geometry" />
        </mxCell>
        <mxCell id="OqXarlBoaVjD4jDFn6e5-2" value="" style="fontSize=12;html=1;endArrow=ERzeroToMany;startArrow=ERmandOne;rounded=0;exitX=0.5;exitY=0;exitDx=0;exitDy=0;entryX=0.063;entryY=0.515;entryDx=0;entryDy=0;entryPerimeter=0;" edge="1" parent="1" source="Ikt8q4Z6_RrET4Gfh8_O-8" target="OqXarlBoaVjD4jDFn6e5-5">
          <mxGeometry width="100" height="100" relative="1" as="geometry">
            <mxPoint x="-170" y="350" as="sourcePoint" />
            <mxPoint x="-260" y="390" as="targetPoint" />
          </mxGeometry>
        </mxCell>
        <mxCell id="OqXarlBoaVjD4jDFn6e5-5" value="게시판" style="shape=rhombus;perimeter=rhombusPerimeter;whiteSpace=wrap;html=1;align=center;" vertex="1" parent="1">
          <mxGeometry x="-240" y="350" width="120" height="60" as="geometry" />
        </mxCell>
        <mxCell id="OqXarlBoaVjD4jDFn6e5-6" value="" style="fontSize=12;html=1;endArrow=ERzeroToMany;startArrow=ERmandOne;rounded=0;exitX=0.5;exitY=0;exitDx=0;exitDy=0;entryX=1;entryY=0.5;entryDx=0;entryDy=0;" edge="1" parent="1" source="Ikt8q4Z6_RrET4Gfh8_O-16" target="OqXarlBoaVjD4jDFn6e5-5">
          <mxGeometry width="100" height="100" relative="1" as="geometry">
            <mxPoint x="-35" y="350" as="sourcePoint" />
            <mxPoint x="303" y="291" as="targetPoint" />
          </mxGeometry>
        </mxCell>
      </root>
    </mxGraphModel>
  </diagram>
</mxfile>
